<svg xmlns="http://www.w3.org/2000/svg" width="344.007" height="96.001" viewBox="0 0 344.007 96.001">
  <g id="header-layout-05" transform="translate(0 0)">
    <path id="Subtraction_14" data-name="Subtraction 14" d="M-2732-524h-344v-96h344v96Zm-42.015-38.179h0l1.247,1.247a.438.438,0,0,0,.311.13.445.445,0,0,0,.312-.13l.005-.005a.421.421,0,0,0,.14-.312.422.422,0,0,0-.14-.312l-1.246-1.247a2.646,2.646,0,0,0,.2-2.757A2.646,2.646,0,0,0-2775.55-567h-.007a2.653,2.653,0,0,0-2.523,1.825,2.649,2.649,0,0,0,.946,2.97,2.64,2.64,0,0,0,1.577.519,2.646,2.646,0,0,0,1.54-.491Zm-261.643.512a.334.334,0,0,0-.334.333.334.334,0,0,0,.334.334h5.319a.334.334,0,0,0,.333-.334.333.333,0,0,0-.333-.333ZM-2885-565v2h10v-2h-10Zm-12,0v2h10v-2h-10Zm-12,0v2h10v-2h-10Zm-12,0v2h10v-2h-10Zm-12,0v2h10v-2h-10Zm-102.658.667a.334.334,0,0,0-.334.334.334.334,0,0,0,.334.333h5.319a.333.333,0,0,0,.333-.333.334.334,0,0,0-.333-.334Zm0-2.666a.334.334,0,0,0-.334.334.334.334,0,0,0,.334.333h5.327a.333.333,0,0,0,.334-.325.334.334,0,0,0-.325-.342Zm114.345-14.924v.628h4.628v-.619h-1.2l-.686-2.03a5.888,5.888,0,0,0,1.313-2.3,12.1,12.1,0,0,0,.562-3.2v-.324h-4.62v.627h3.973c-.1,1.312-.647,5.587-3.659,5.587h-.313v.627h.338a3.453,3.453,0,0,0,.745-.081l.361,1.084Zm30.248-7.9v1.072h1.64V-584h1.352v-4.756h1.64v-1.072Zm-4.141,0V-584h3.752v-1.039h-2.391v-1.389h1.832v-1h-1.832v-1.36h2.391v-1.039Zm-2.294,1.952h0c-.01.087-.017.175-.022.271s-.006.178-.006.252V-584h1.192v-5.828h-1.031c-.066,0-.115,0-.155,0a.4.4,0,0,0-.118.024.251.251,0,0,0-.094.062.461.461,0,0,0-.082.118l-1.5,2.944c-.054.1-.106.2-.157.319s-.091.214-.142.345c-.041-.1-.086-.213-.142-.337-.043-.1-.094-.2-.154-.316l-1.5-2.956a.461.461,0,0,0-.083-.118.242.242,0,0,0-.094-.062.386.386,0,0,0-.118-.024c-.04,0-.089,0-.154,0h-1.032V-584h1.193v-3.352c0-.077,0-.163-.008-.255s-.013-.185-.02-.282l1.547,3a.513.513,0,0,0,.195.211.532.532,0,0,0,.278.072h.184a.533.533,0,0,0,.278-.072.5.5,0,0,0,.194-.211Zm-9.969-1.952V-584h3.752v-1.039h-2.392v-1.389h1.831v-1h-1.831v-1.36h2.392v-1.039Zm-4.3,3.348h.328a.791.791,0,0,1,.3.046.4.4,0,0,1,.182.158l1.319,2.029a.773.773,0,0,0,.085.105.419.419,0,0,0,.1.078.506.506,0,0,0,.142.048,1.026,1.026,0,0,0,.2.016h1.208l-1.76-2.7a1.176,1.176,0,0,0-.232-.26,1,1,0,0,0-.277-.157,1.181,1.181,0,0,0,.4-.352l1.728-2.355h-1.176a.844.844,0,0,0-.334.058.641.641,0,0,0-.25.21l-1.312,1.9a.494.494,0,0,1-.432.188h-.216v-2.36h-1.352V-584h1.352v-2.479Zm-9.544-.779h0v3.07h.314c1.466,0,2.5-1.411,2.913-3.973l.058-.361h-3.285v.626h2.543c-.242,1.259-.772,2.809-1.914,3.055v-2.417Zm.982-4.3h0l1,1.063a.512.512,0,0,0,.334.2.3.3,0,0,0,.19-.076l.027-.027,1.1-1.161a1.682,1.682,0,0,1,.366,1.032v.122h.627v-.122a2.3,2.3,0,0,0-.544-1.491l.517-.553-.447-.433-.541.567a2.289,2.289,0,0,0-1.3-.4,2.292,2.292,0,0,0-1.3.4l-.543-.567-.456.433.522.553a2.3,2.3,0,0,0-.542,1.491v.122h.628v-.122a1.675,1.675,0,0,1,.353-1.031ZM-2776-611v2h4v-2h-4Zm-12,0v2h10v-2h-10Zm-236,0v2h2v-2h-2Zm-4,0v2h2v-2h-2Zm-4,0v2h2v-2h-2Zm-4,0v2h2v-2h-2Zm260.447,48.426a1.758,1.758,0,0,1-1.052-.347,1.767,1.767,0,0,1-.629-1.977,1.766,1.766,0,0,1,1.681-1.217,1.764,1.764,0,0,1,1.574.957,1.762,1.762,0,0,1-.13,1.837l-.175.246-.246.176A1.761,1.761,0,0,1-2775.552-562.574Zm-142.99-19.34h-.664l-.431-1.286a3.22,3.22,0,0,0,.553-.309l.542,1.593Zm-.461-9.157h0l-.855-.9a1.69,1.69,0,0,1,.856-.235,1.7,1.7,0,0,1,.856.235l-.855.9Z" transform="translate(3076 620)" fill="#fff"/>
    <line id="Line_7" data-name="Line 7" x2="342.997" transform="translate(0.509 20)" fill="none" stroke="#c7c7c7" stroke-linecap="square" stroke-width="1"/>
    <line id="Line_8" data-name="Line 8" x2="342.997" transform="translate(0.509 46)" fill="none" stroke="#c7c7c7" stroke-linecap="square" stroke-width="1"/>
    <line id="Line_11" data-name="Line 11" x2="342.997" transform="translate(0.509 66)" fill="none" stroke="#c7c7c7" stroke-linecap="square" stroke-width="1"/>
  </g>
</svg>
