<svg xmlns="http://www.w3.org/2000/svg" width="344.018" height="76.001" viewBox="0 0 344.018 76.001">
  <g id="header-layout-06" transform="translate(-3076 -726)">
    <path id="Subtraction_8" data-name="Subtraction 8" d="M344,76H0V0H344V76ZM40,38.077v.628h4.628v-.619h-1.2l-.686-2.03a5.888,5.888,0,0,0,1.313-2.3,12.1,12.1,0,0,0,.562-3.2v-.324H40v.627h3.973c-.1,1.312-.646,5.587-3.659,5.587H40v.627h.338a3.451,3.451,0,0,0,.744-.081l.361,1.084ZM282,29v8h22V29ZM70.248,30.172v1.073h1.64V36H73.24V31.244h1.64V30.172Zm-4.14,0V36H69.86V34.96H67.468V33.572H69.3v-1H67.468v-1.36H69.86v-1.04Zm-2.294,1.953h0c-.01.088-.017.177-.022.271,0,.078-.006.169-.006.252V36H64.98V30.172H63.948c-.054,0-.105,0-.154,0a.391.391,0,0,0-.118.024.259.259,0,0,0-.094.061.485.485,0,0,0-.083.119L62,33.324c-.053.1-.1.2-.158.319s-.1.233-.142.344c-.04-.1-.084-.207-.142-.336-.05-.109-.1-.215-.154-.316l-1.5-2.956a.489.489,0,0,0-.082-.119.26.26,0,0,0-.094-.061.391.391,0,0,0-.118-.024c-.048,0-.1,0-.154,0H58.428V36H59.62V32.648c0-.076,0-.162-.008-.255s-.013-.2-.02-.282l1.548,3a.507.507,0,0,0,.194.211.533.533,0,0,0,.278.072H61.8a.533.533,0,0,0,.278-.072.518.518,0,0,0,.194-.211Zm-9.969-1.953V36H57.6V34.96H55.2V33.572h1.832v-1H55.2v-1.36H57.6v-1.04Zm-4.3,3.348h.328a.762.762,0,0,1,.3.047.4.4,0,0,1,.183.158l1.319,2.028a.74.74,0,0,0,.085.106.412.412,0,0,0,.1.078.506.506,0,0,0,.142.048,1.048,1.048,0,0,0,.2.016h1.208l-1.759-2.7a1.167,1.167,0,0,0-.232-.26.992.992,0,0,0-.276-.157,1.177,1.177,0,0,0,.4-.352l1.728-2.356H52.087a.849.849,0,0,0-.334.059.653.653,0,0,0-.249.21l-1.312,1.9a.494.494,0,0,1-.432.188h-.216V30.172H48.192V36h1.352V33.521ZM40,32.742v3.07h.314c1.466,0,2.5-1.411,2.913-3.973l.058-.361H40V32.1h2.543c-.243,1.259-.772,2.809-1.914,3.055V32.742ZM191,32v2h10V32Zm-12,0v2h10V32Zm-12,0v2h10V32Zm-12,0v2h10V32Zm-12,0v2h10V32ZM40.981,28.445h0l1,1.063a.512.512,0,0,0,.334.2.3.3,0,0,0,.19-.076l.027-.027,1.1-1.161A1.682,1.682,0,0,1,44,29.478V29.6h.627v-.122a2.3,2.3,0,0,0-.544-1.491l.517-.554L44.152,27l-.541.567a2.3,2.3,0,0,0-2.593,0L40.475,27l-.455.433.522.554A2.3,2.3,0,0,0,40,29.478V29.6h.628v-.122a1.675,1.675,0,0,1,.353-1.031ZM300,9v2h4V9ZM288,9v2h10V9ZM52,9v2h2V9ZM48,9v2h2V9ZM44,9v2h2V9ZM40,9v2h2V9Zm2.771,29.086h-.664L41.675,36.8a3.232,3.232,0,0,0,.554-.309l.541,1.593ZM42.31,28.93h0l-.855-.9a1.677,1.677,0,0,1,1.712,0l-.855.9Z" transform="translate(3076 726)" fill="#fff"/>
    <path id="Line_9" data-name="Line 9" d="M0,0H343.011" transform="translate(3076.507 746)" fill="#fff" stroke="#c7c7c7" stroke-linecap="square" stroke-width="1"/>
    <line id="Line_12" data-name="Line 12" x2="343.011" transform="translate(3076.507 772)" fill="none" stroke="#c7c7c7" stroke-linecap="square" stroke-width="1"/>
  </g>
</svg>
