<svg xmlns="http://www.w3.org/2000/svg" width="344" height="78.001" viewBox="0 0 344 78.001">
  <g id="header-layout-07" transform="translate(-3076 -812)">
    <path id="Subtraction_9" data-name="Subtraction 9" d="M344-7H0V-85H344V-7ZM40-45.922v.628h4.628v-.619h-1.2l-.686-2.03a5.888,5.888,0,0,0,1.313-2.3,12.1,12.1,0,0,0,.562-3.2v-.324H40v.627h3.973c-.1,1.312-.646,5.587-3.659,5.587H40v.627h.338a3.451,3.451,0,0,0,.744-.081l.361,1.084ZM282-55v8h22v-8ZM70.248-53.828v1.072h1.64V-48H73.24v-4.756h1.64v-1.072Zm-4.14,0V-48H69.86v-1.04H67.468v-1.388H69.3v-1H67.468v-1.36H69.86v-1.04Zm-2.294,1.953h0c-.01.087-.017.175-.022.27s-.006.17-.006.252V-48H64.98v-5.828H63.948c-.053,0-.1,0-.154,0a.393.393,0,0,0-.118.023.274.274,0,0,0-.094.062.478.478,0,0,0-.083.118L62-50.676c-.056.1-.107.207-.158.32s-.1.229-.142.344c-.041-.1-.089-.218-.142-.336s-.1-.216-.154-.316l-1.5-2.957a.477.477,0,0,0-.082-.118.276.276,0,0,0-.094-.062.394.394,0,0,0-.118-.023c-.049,0-.1,0-.154,0H58.428V-48H59.62v-3.352c0-.077,0-.162-.008-.254s-.01-.168-.02-.282l1.548,3a.5.5,0,0,0,.194.212.54.54,0,0,0,.278.072H61.8a.54.54,0,0,0,.278-.072.515.515,0,0,0,.194-.212Zm-9.969-1.953V-48H57.6v-1.04H55.2v-1.388h1.832v-1H55.2v-1.36H57.6v-1.04Zm-4.3,3.348h.328a.792.792,0,0,1,.3.046.4.4,0,0,1,.183.158l1.319,2.028a.74.74,0,0,0,.085.106.412.412,0,0,0,.1.078.533.533,0,0,0,.142.048,1.048,1.048,0,0,0,.2.016h1.208l-1.759-2.7a1.184,1.184,0,0,0-.232-.26.964.964,0,0,0-.276-.156,1.176,1.176,0,0,0,.4-.352l1.728-2.356H52.087a.849.849,0,0,0-.334.058.646.646,0,0,0-.249.21l-1.312,1.9a.492.492,0,0,1-.432.188h-.216v-2.36H48.192V-48h1.352v-2.479ZM40-51.258v3.07h.314c1.466,0,2.5-1.411,2.913-3.973l.058-.361H40v.626h2.543c-.242,1.259-.772,2.809-1.914,3.055v-2.417ZM267-52v2h10v-2Zm-12,0v2h10v-2Zm-12,0v2h10v-2Zm-12,0v2h10v-2Zm-12,0v2h10v-2ZM40.981-55.554h0l1,1.063a.512.512,0,0,0,.334.2.3.3,0,0,0,.19-.076l.027-.027,1.1-1.161A1.682,1.682,0,0,1,44-54.522v.122h.627v-.122a2.3,2.3,0,0,0-.544-1.491l.517-.554L44.152-57l-.541.567a2.29,2.29,0,0,0-1.3-.4,2.291,2.291,0,0,0-1.3.4L40.475-57l-.455.433.522.554A2.3,2.3,0,0,0,40-54.522v.122h.628v-.122a1.675,1.675,0,0,1,.353-1.031Zm261-17.723h0l1.247,1.248a.438.438,0,0,0,.312.129.437.437,0,0,0,.311-.129l.006-.006a.42.42,0,0,0,.139-.312.419.419,0,0,0-.139-.311l-1.247-1.248a2.641,2.641,0,0,0,.2-2.756A2.645,2.645,0,0,0,300.45-78.1h-.007a2.653,2.653,0,0,0-2.524,1.825,2.652,2.652,0,0,0,.947,2.97,2.638,2.638,0,0,0,1.577.519,2.639,2.639,0,0,0,1.539-.492ZM285.786-76v2h10v-2Zm-12,0v2h10v-2ZM40-76v2H60v-2Zm2.771,30.086h-.664L41.675-47.2a3.233,3.233,0,0,0,.554-.309l.541,1.593ZM42.31-55.07h0l-.855-.9a1.689,1.689,0,0,1,.856-.235,1.7,1.7,0,0,1,.856.235l-.855.9Zm258.138-18.6h0a1.757,1.757,0,0,1-1.052-.347,1.765,1.765,0,0,1-.63-1.977,1.767,1.767,0,0,1,1.68-1.216h.007a1.76,1.76,0,0,1,1.569.956,1.76,1.76,0,0,1-.13,1.837l-.175.246L301.47-74A1.758,1.758,0,0,1,300.448-73.673Z" transform="translate(3076 897)" fill="#fff"/>
    <line id="Line_13" data-name="Line 13" x2="342.972" transform="translate(3076.519 832)" fill="none" stroke="#c7c7c7" stroke-linecap="square" stroke-width="1"/>
    <line id="Line_14" data-name="Line 14" x2="342.972" transform="translate(3076.519 859.705)" fill="none" stroke="#c7c7c7" stroke-linecap="square" stroke-width="1"/>
  </g>
</svg>
