<svg xmlns="http://www.w3.org/2000/svg" width="344" height="81.001" viewBox="0 0 344 81.001">
  <g id="header-layout-08" transform="translate(-3076 -900)">
    <path id="Subtraction_10" data-name="Subtraction 10" d="M344,81H0V0H344V81ZM191,39v2h10V39Zm-12,0v2h10V39Zm-12,0v2h10V39Zm-12,0v2h10V39Zm-12,0v2h10V39Zm12-18.923v.628h4.628v-.619h-1.2l-.686-2.03a5.875,5.875,0,0,0,1.312-2.3,12.1,12.1,0,0,0,.563-3.2v-.324H155v.627h3.973c-.1,1.312-.646,5.587-3.659,5.587H155v.627h.339a3.45,3.45,0,0,0,.744-.081l.36,1.084ZM262,9.5V20h42V9.5Zm-76.751,2.671v1.073h1.64V18h1.352V13.244h1.64V12.172Zm-4.141,0V18h3.752V16.96h-2.391V15.572H184.3v-1h-1.831v-1.36h2.391v-1.04Zm-2.294,1.953h0c-.01.088-.017.177-.022.271s-.005.174-.005.252V18h1.191V12.172h-1.031c-.055,0-.107,0-.155,0a.4.4,0,0,0-.118.024.271.271,0,0,0-.094.061.513.513,0,0,0-.081.119L177,15.324c-.051.093-.1.2-.158.319s-.1.241-.141.344c-.041-.1-.089-.217-.143-.336s-.1-.211-.153-.316l-1.5-2.956a.485.485,0,0,0-.084-.119.24.24,0,0,0-.093-.061.391.391,0,0,0-.118-.024c-.051,0-.1,0-.154,0h-1.033V18h1.192V14.648c0-.072,0-.156-.007-.255,0-.082-.011-.165-.017-.251l0-.031,1.547,3a.518.518,0,0,0,.194.212.532.532,0,0,0,.278.072h.184a.533.533,0,0,0,.278-.072.514.514,0,0,0,.194-.212Zm-9.969-1.953V18H172.6V16.96H170.2V15.572h1.831v-1H170.2v-1.36H172.6v-1.04Zm-4.3,3.348h.328a.777.777,0,0,1,.3.047.4.4,0,0,1,.181.158l1.32,2.028a.741.741,0,0,0,.085.106.413.413,0,0,0,.1.078.507.507,0,0,0,.142.048,1.035,1.035,0,0,0,.2.016h1.208l-1.759-2.7a1.166,1.166,0,0,0-.232-.26.991.991,0,0,0-.276-.157,1.176,1.176,0,0,0,.4-.352l1.728-2.356h-1.176a.841.841,0,0,0-.333.059.641.641,0,0,0-.25.21l-1.312,1.9a.494.494,0,0,1-.432.188h-.216V12.172h-1.352V18h1.352V15.521ZM155,14.742v3.07h.315c1.466,0,2.5-1.411,2.913-3.973l.058-.361H155V14.1h2.544c-.242,1.259-.772,2.809-1.914,3.055V14.742ZM52,14v2h2V14Zm-4,0v2h2V14Zm-4,0v2h2V14Zm-4,0v2h2V14Zm115.983-3.555h0l1,1.063a.517.517,0,0,0,.335.2.3.3,0,0,0,.19-.076l.027-.027,1.1-1.161A1.682,1.682,0,0,1,159,11.478V11.6h.627v-.122a2.3,2.3,0,0,0-.544-1.491l.517-.554L159.152,9l-.54.567a2.3,2.3,0,0,0-2.594,0L155.476,9l-.455.433.522.554A2.307,2.307,0,0,0,155,11.478V11.6h.629v-.122a1.675,1.675,0,0,1,.353-1.031Zm1.789,9.641h-.664l-.432-1.286a3.211,3.211,0,0,0,.554-.309l.541,1.593ZM303.45,19.45h-40.9v-9.4h40.9v9.4Zm-5.772-2.977h0l1.247,1.247a.438.438,0,0,0,.311.13.445.445,0,0,0,.312-.13l.006-.005a.419.419,0,0,0,0-.625l-1.247-1.247a2.654,2.654,0,0,0-2.163-4.192h-.007a2.657,2.657,0,1,0,1.539,4.823Zm-1.537-.4a1.772,1.772,0,1,1,1.445-.747l-.176.246-.246.175A1.759,1.759,0,0,1,296.142,16.076ZM157.31,10.93h0l-.854-.9a1.677,1.677,0,0,1,1.712,0l-.856.9Z" transform="translate(3076 900)" fill="#fff"/>
    <path id="Line_15" data-name="Line 15" d="M0,0H342.986" transform="translate(3076.503 929.705)" fill="#fff" stroke="#c7c7c7" stroke-linecap="square" stroke-width="1"/>
    <path id="Path_20" data-name="Path 20" d="M0,0H342.986" transform="translate(3076.503 950.295)" fill="#fff" stroke="#c7c7c7" stroke-linecap="square" stroke-width="1"/>
  </g>
</svg>
