<svg xmlns="http://www.w3.org/2000/svg" width="344.002" height="60" viewBox="0 0 344.002 60">
  <g id="header-layout-02" transform="translate(-3075.749 -374)">
    <path id="Subtraction_5" data-name="Subtraction 5" d="M344,60H0V0H344V60ZM40,20.077v.628h4.628v-.619h-1.2l-.686-2.03a5.887,5.887,0,0,0,1.313-2.3,12.1,12.1,0,0,0,.562-3.2v-.324H40v.627h3.973c-.1,1.311-.646,5.587-3.659,5.587H40v.627h.338a3.451,3.451,0,0,0,.744-.081l.361,1.084ZM282,11v8h22V11ZM70.248,12.172v1.073h1.64V18H73.24V13.244h1.64V12.172Zm-4.14,0V18H69.86V16.96H67.468V15.572H69.3v-1H67.468v-1.36H69.86v-1.04Zm-2.294,1.953h0c-.01.088-.017.176-.022.271,0,.078-.006.169-.006.252V18H64.98V12.172H63.948c-.054,0-.105,0-.154,0a.39.39,0,0,0-.118.024.251.251,0,0,0-.094.061.485.485,0,0,0-.083.119L62,15.324c-.057.1-.11.211-.158.319s-.1.233-.142.344c-.04-.1-.084-.207-.142-.336-.049-.109-.1-.215-.154-.316l-1.5-2.956a.489.489,0,0,0-.082-.119.259.259,0,0,0-.094-.061.391.391,0,0,0-.118-.024c-.048,0-.1,0-.154,0H58.428V18H59.62V14.648c0-.076,0-.162-.008-.255s-.013-.2-.02-.282l1.548,3a.507.507,0,0,0,.194.211.533.533,0,0,0,.278.072H61.8a.533.533,0,0,0,.278-.072.518.518,0,0,0,.194-.211Zm-9.969-1.953V18H57.6V16.96H55.2V15.572h1.832v-1H55.2v-1.36H57.6v-1.04Zm-4.3,3.348h.328a.773.773,0,0,1,.3.047.4.4,0,0,1,.183.157l1.319,2.028a.739.739,0,0,0,.085.106.412.412,0,0,0,.1.078.506.506,0,0,0,.142.048,1.045,1.045,0,0,0,.2.016h1.208l-1.759-2.7a1.167,1.167,0,0,0-.232-.26.992.992,0,0,0-.276-.157,1.177,1.177,0,0,0,.4-.352l1.728-2.356H52.087a.849.849,0,0,0-.334.058.644.644,0,0,0-.249.21l-1.312,1.9a.494.494,0,0,1-.432.188h-.216V12.172H48.192V18h1.352V15.521ZM40,14.742v3.07h.314c1.466,0,2.5-1.411,2.913-3.973l.058-.361H40V14.1h2.543c-.242,1.259-.772,2.809-1.914,3.055V14.742ZM191,14v2h10V14Zm-12,0v2h10V14Zm-12,0v2h10V14Zm-12,0v2h10V14Zm-12,0v2h10V14ZM40.981,10.445h0l1,1.063a.512.512,0,0,0,.334.2.3.3,0,0,0,.19-.076l.027-.027,1.1-1.161A1.682,1.682,0,0,1,44,11.478V11.6h.627v-.122a2.3,2.3,0,0,0-.544-1.491l.517-.554L44.152,9l-.541.567a2.3,2.3,0,0,0-2.593,0L40.475,9l-.455.433.522.554A2.3,2.3,0,0,0,40,11.478V11.6h.628v-.122a1.675,1.675,0,0,1,.353-1.031Zm1.789,9.641h-.664L41.675,18.8a3.238,3.238,0,0,0,.554-.309l.541,1.593ZM42.31,10.93h0l-.855-.9a1.677,1.677,0,0,1,1.712,0l-.855.9Z" transform="translate(3075.749 374)" fill="#fff"/>
    <path id="Path_44" data-name="Path 44" d="M0,0H343" transform="translate(3076.25 403.705)" fill="none" stroke="#c7c7c7" stroke-linecap="square" stroke-width="1"/>
  </g>
</svg>
