<svg xmlns="http://www.w3.org/2000/svg" width="344" height="80.001" viewBox="0 0 344 80.001">
  <g id="header-layout-10" transform="translate(-3076 -1081)">
    <path id="Subtraction_12" data-name="Subtraction 12" d="M344-10H0V-90H344v80Zm-153-41.3v2h10v-2Zm-12,0v2h10v-2Zm-12,0v2h10v-2Zm-12,0v2h10v-2Zm-12,0v2h10v-2ZM40-69.923v.628h4.628v-.619h-1.2l-.686-2.03a5.888,5.888,0,0,0,1.313-2.3,12.1,12.1,0,0,0,.562-3.2v-.324H40v.627h3.973c-.1,1.312-.646,5.587-3.659,5.587H40v.627h.338a3.451,3.451,0,0,0,.744-.081l.361,1.085Zm261.984-3.354h0l1.247,1.248a.438.438,0,0,0,.312.129.437.437,0,0,0,.311-.129l.006-.006a.42.42,0,0,0,.139-.312.419.419,0,0,0-.139-.311l-1.247-1.248a2.643,2.643,0,0,0,.2-2.757A2.646,2.646,0,0,0,300.45-78.1h-.007a2.653,2.653,0,0,0-2.524,1.825,2.652,2.652,0,0,0,.947,2.97,2.638,2.638,0,0,0,1.577.519,2.639,2.639,0,0,0,1.539-.492ZM70.248-77.828v1.073h1.64V-72H73.24v-4.756h1.64v-1.073Zm-4.14,0V-72H69.86v-1.04H67.468v-1.388H69.3v-1H67.468v-1.36H69.86v-1.04Zm-2.294,1.953h0c-.01.088-.017.177-.022.271,0,.078-.006.169-.006.252V-72H64.98v-5.828H63.948c-.054,0-.105,0-.154,0a.391.391,0,0,0-.118.024.259.259,0,0,0-.094.061.485.485,0,0,0-.083.119L62-74.676c-.053.1-.1.2-.158.319s-.1.233-.142.344c-.04-.1-.084-.207-.142-.336-.05-.109-.1-.215-.154-.316l-1.5-2.956a.489.489,0,0,0-.082-.119.26.26,0,0,0-.094-.061.391.391,0,0,0-.118-.024c-.048,0-.1,0-.154,0H58.428V-72H59.62v-3.352c0-.076,0-.162-.008-.255s-.013-.2-.02-.282l1.548,3a.507.507,0,0,0,.194.211.533.533,0,0,0,.278.072H61.8a.533.533,0,0,0,.278-.072.518.518,0,0,0,.194-.211Zm-9.969-1.953V-72H57.6v-1.04H55.2v-1.388h1.832v-1H55.2v-1.36H57.6v-1.04Zm-4.3,3.348h.328a.762.762,0,0,1,.3.047.4.4,0,0,1,.183.158l1.319,2.028a.741.741,0,0,0,.085.106.412.412,0,0,0,.1.078.506.506,0,0,0,.142.048,1.048,1.048,0,0,0,.2.016h1.208l-1.759-2.7a1.167,1.167,0,0,0-.232-.26.992.992,0,0,0-.276-.157,1.177,1.177,0,0,0,.4-.352l1.728-2.356H52.087a.849.849,0,0,0-.334.059.653.653,0,0,0-.249.21l-1.312,1.9a.494.494,0,0,1-.432.188h-.216v-2.361H48.192V-72h1.352v-2.479ZM40-75.258v3.07h.314c1.466,0,2.5-1.411,2.913-3.973l.058-.361H40v.626h2.543c-.243,1.259-.772,2.809-1.914,3.055v-2.417ZM286-76v2h10v-2Zm-12,0v2h10v-2ZM40.981-79.555h0l1,1.063a.512.512,0,0,0,.334.2.3.3,0,0,0,.19-.076l.027-.027,1.1-1.161A1.682,1.682,0,0,1,44-78.522v.122h.627v-.122a2.3,2.3,0,0,0-.544-1.491l.517-.553L44.152-81l-.541.567a2.29,2.29,0,0,0-1.3-.4,2.291,2.291,0,0,0-1.3.4L40.475-81l-.455.433.522.553A2.3,2.3,0,0,0,40-78.522v.122h.628v-.122a1.675,1.675,0,0,1,.353-1.031Zm1.789,9.641h-.664L41.675-71.2a3.233,3.233,0,0,0,.554-.309l.541,1.593Zm257.677-3.759h0a1.757,1.757,0,0,1-1.052-.347,1.764,1.764,0,0,1-.63-1.977,1.767,1.767,0,0,1,1.68-1.216h.007a1.76,1.76,0,0,1,1.569.956,1.761,1.761,0,0,1-.13,1.837l-.175.246L301.47-74A1.758,1.758,0,0,1,300.448-73.673ZM42.31-79.07h0l-.855-.9a1.689,1.689,0,0,1,.856-.235,1.7,1.7,0,0,1,.856.235l-.855.9Z" transform="translate(3076 1171)" fill="#fff"/>
    <path id="Path_25" data-name="Path 25" d="M0,0H342.987" transform="translate(3076.503 1110.705)" fill="#fff" stroke="#c7c7c7" stroke-linecap="square" stroke-width="1"/>
    <path id="Path_26" data-name="Path 26" d="M0,0H342.987" transform="translate(3076.503 1130.705)" fill="#fff" stroke="#c7c7c7" stroke-linecap="square" stroke-width="1"/>
  </g>
</svg>
