<svg xmlns="http://www.w3.org/2000/svg" width="344" height="60.001" viewBox="0 0 344 60.001">
  <g id="header-layout-01" transform="translate(-1906 70)">
    <path id="Subtraction_15" data-name="Subtraction 15" d="M344,60H0V0H344V60ZM40,20.077v.628h4.628v-.619h-1.2l-.687-2.03a5.888,5.888,0,0,0,1.313-2.3,12.1,12.1,0,0,0,.562-3.2v-.324H40v.627h3.973c-.1,1.312-.646,5.587-3.66,5.587H40v.627h.338a3.467,3.467,0,0,0,.745-.081l.36,1.084Zm30.249-8.052V13.1h1.639v4.757h1.352V13.1h1.64V12.025Zm-4.14,0v5.828H69.86v-1.04H67.468V15.425H69.3v-1H67.468v-1.36H69.86v-1.04Zm-2.3,1.953h0c-.009.089-.016.18-.021.27s-.005.175-.005.252v3.352h1.191V12.025H63.948c-.054,0-.107,0-.154,0a.412.412,0,0,0-.117.023.263.263,0,0,0-.1.062.535.535,0,0,0-.081.118L62,15.178c-.05.088-.1.187-.158.319s-.1.237-.142.344c-.045-.115-.094-.229-.14-.336-.058-.125-.107-.225-.155-.316l-1.5-2.957a.532.532,0,0,0-.082-.118.288.288,0,0,0-.095-.062.429.429,0,0,0-.118-.023c-.048,0-.1,0-.155,0H58.427v5.828H59.62V14.5c0-.077,0-.162-.008-.254s-.011-.178-.018-.264v-.017l1.547,3a.522.522,0,0,0,.193.212.537.537,0,0,0,.278.072H61.8a.528.528,0,0,0,.277-.072.5.5,0,0,0,.194-.212Zm-9.969-1.953v5.828H57.6v-1.04H55.2V15.425h1.832v-1H55.2v-1.36H57.6v-1.04Zm-4.3,3.348h.328a.794.794,0,0,1,.3.046.4.4,0,0,1,.182.158l1.32,2.028a.69.69,0,0,0,.085.106.4.4,0,0,0,.1.078.533.533,0,0,0,.142.048,1.035,1.035,0,0,0,.2.016h1.208l-1.76-2.7a1.18,1.18,0,0,0-.232-.259.96.96,0,0,0-.274-.157,1.193,1.193,0,0,0,.4-.352l1.728-2.356H52.087a.843.843,0,0,0-.334.059.646.646,0,0,0-.249.21l-1.313,1.9a.494.494,0,0,1-.432.188h-.215V12.025H48.192v5.828h1.352V15.374ZM40,14.742v3.07h.314c1.466,0,2.5-1.411,2.913-3.973l.058-.361H40V14.1h2.544c-.243,1.259-.774,2.81-1.915,3.055V14.742Zm254-.889v2h10v-2Zm-12,0v2h10v-2Zm-12,0v2h10v-2Zm-12,0v2h10v-2Zm-12,0v2h10v-2ZM40.981,10.445h0l1,1.063a.512.512,0,0,0,.335.2.3.3,0,0,0,.189-.076l.027-.027,1.1-1.161A1.682,1.682,0,0,1,44,11.478V11.6h.628v-.122a2.3,2.3,0,0,0-.544-1.491l.517-.554L44.152,9l-.541.567a2.3,2.3,0,0,0-2.593,0L40.475,9l-.455.433.522.554A2.3,2.3,0,0,0,40,11.478V11.6h.629v-.122a1.673,1.673,0,0,1,.352-1.031Zm1.789,9.641h-.664l-.43-1.286a3.27,3.27,0,0,0,.553-.309l.54,1.593ZM42.31,10.93h0l-.854-.9a1.677,1.677,0,0,1,1.712,0l-.856.9Z" transform="translate(1906 -70)" fill="#fff"/>
    <path id="Path_12" data-name="Path 12" d="M0,0H342.967" transform="translate(1906.52 -40.295)" fill="#fff" stroke="#c7c7c7" stroke-linecap="square" stroke-width="1"/>
  </g>
</svg>
