<svg xmlns="http://www.w3.org/2000/svg" width="344" height="60.001" viewBox="0 0 344 60.001">
  <g id="header-layout-03" transform="translate(-3076 -460)">
    <path id="Subtraction_6" data-name="Subtraction 6" d="M344,66H0V6H344V66ZM40,26.077v.628h4.628v-.619h-1.2l-.686-2.03a5.888,5.888,0,0,0,1.313-2.3,12.1,12.1,0,0,0,.562-3.2v-.324H40v.627h3.973c-.1,1.312-.646,5.587-3.659,5.587H40v.627h.338a3.451,3.451,0,0,0,.744-.081l.361,1.084ZM282,17v8h22V17ZM70.248,18.172v1.072h1.64V24H73.24V19.244h1.64V18.172Zm-4.14,0V24H69.86V22.96H67.468V21.572H69.3v-1H67.468v-1.36H69.86v-1.04Zm-2.294,1.953h0c-.01.087-.017.175-.022.27s-.006.17-.006.252V24H64.98V18.172H63.948c-.054,0-.105,0-.154,0a.394.394,0,0,0-.118.023.274.274,0,0,0-.094.062.477.477,0,0,0-.083.118L62,21.324c-.056.1-.108.207-.158.32s-.1.229-.142.344c-.041-.1-.089-.218-.142-.336s-.1-.216-.154-.316l-1.5-2.956a.476.476,0,0,0-.082-.118.275.275,0,0,0-.094-.062.394.394,0,0,0-.118-.023c-.048,0-.1,0-.154,0H58.428V24H59.62V20.648c0-.077,0-.162-.008-.254s-.01-.168-.02-.282l1.548,3a.5.5,0,0,0,.194.212.54.54,0,0,0,.278.072H61.8a.54.54,0,0,0,.278-.072.516.516,0,0,0,.194-.212Zm-9.969-1.953V24H57.6V22.96H55.2V21.572h1.832v-1H55.2v-1.36H57.6v-1.04Zm-4.3,3.348h.328a.791.791,0,0,1,.3.046.4.4,0,0,1,.183.158l1.319,2.028a.743.743,0,0,0,.085.106.414.414,0,0,0,.1.078.536.536,0,0,0,.142.048,1.047,1.047,0,0,0,.2.016h1.208l-1.759-2.7a1.186,1.186,0,0,0-.232-.26.966.966,0,0,0-.276-.156,1.176,1.176,0,0,0,.4-.352l1.728-2.356H52.087a.849.849,0,0,0-.334.058.646.646,0,0,0-.249.21l-1.312,1.9a.492.492,0,0,1-.432.188h-.216v-2.36H48.192V24h1.352V21.521ZM40,20.742v3.07h.314c1.466,0,2.5-1.411,2.913-3.973l.058-.361H40v.626h2.543c-.243,1.259-.772,2.809-1.914,3.055V20.742ZM130,20v2h10V20Zm-12,0v2h10V20Zm-12,0v2h10V20ZM94,20v2h10V20ZM82,20v2H92V20ZM40.981,16.446h0l1,1.063a.512.512,0,0,0,.334.2.3.3,0,0,0,.19-.076l.027-.027,1.1-1.161A1.682,1.682,0,0,1,44,17.478V17.6h.627v-.122a2.3,2.3,0,0,0-.544-1.491l.517-.554L44.152,15l-.541.567a2.3,2.3,0,0,0-2.593,0L40.475,15l-.455.433.522.554A2.3,2.3,0,0,0,40,17.478V17.6h.628v-.122a1.675,1.675,0,0,1,.353-1.031Zm1.789,9.641h-.664L41.675,24.8a3.238,3.238,0,0,0,.554-.309l.541,1.593ZM42.31,16.93h0l-.855-.9a1.677,1.677,0,0,1,1.712,0l-.855.9Z" transform="translate(3076 454)" fill="#fff"/>
    <line id="Line_4" data-name="Line 4" x2="343" transform="translate(3076.5 489.705)" fill="none" stroke="#c7c7c7" stroke-linecap="square" stroke-width="1"/>
  </g>
</svg>
