<svg xmlns="http://www.w3.org/2000/svg" width="344.003" height="96.001" viewBox="0 0 344.003 96.001">
  <g id="header-layout-04" transform="translate(-3075.997 -514)">
    <path id="Subtraction_7" data-name="Subtraction 7" d="M-26,96H-370V0H-26V96ZM-179,54.7v2h10v-2Zm-12,0v2h10v-2Zm-12,0v2h10v-2Zm-12,0v2h10v-2Zm-12,0v2h10v-2Zm12-16.627v.628h4.627v-.619h-1.2l-.686-2.03a5.883,5.883,0,0,0,1.312-2.3,12.133,12.133,0,0,0,.563-3.2v-.324H-215v.627h3.973c-.095,1.311-.642,5.587-3.659,5.587H-215v.627h.339a3.434,3.434,0,0,0,.744-.081l.361,1.084Zm30.249-7.9v1.072h1.639V36h1.352V31.244h1.641V30.172Zm-4.141,0V36h3.751V34.96h-2.391V33.572h1.831v-1h-1.831v-1.36h2.391v-1.04Zm-2.294,1.952h0c-.011.1-.019.189-.022.271s-.005.185-.005.252V36h1.191V30.172h-1.031c-.066,0-.115,0-.155,0a.4.4,0,0,0-.118.024.262.262,0,0,0-.094.062.484.484,0,0,0-.082.118l-1.5,2.944c-.056.1-.109.209-.158.319s-.1.224-.141.345c-.037-.094-.079-.194-.143-.337-.048-.108-.1-.215-.154-.316l-1.5-2.956a.466.466,0,0,0-.084-.118.236.236,0,0,0-.094-.062.384.384,0,0,0-.118-.024c-.04,0-.089,0-.153,0h-1.033V36h1.192V32.648c0-.08,0-.17-.006-.255,0-.051-.007-.1-.011-.155s-.006-.085-.009-.127l1.547,3a.5.5,0,0,0,.194.211.525.525,0,0,0,.278.072h.184a.523.523,0,0,0,.277-.072.5.5,0,0,0,.194-.211Zm-9.969-1.952V36h3.751V34.96H-199.8V33.572h1.831v-1H-199.8v-1.36h2.391v-1.04Zm-4.3,3.348h.328a.8.8,0,0,1,.3.046.405.405,0,0,1,.181.158l1.32,2.029a.782.782,0,0,0,.084.105.427.427,0,0,0,.1.078.526.526,0,0,0,.143.048,1.034,1.034,0,0,0,.2.016h1.208l-1.759-2.7a1.166,1.166,0,0,0-.232-.26.99.99,0,0,0-.276-.157,1.165,1.165,0,0,0,.4-.352l1.729-2.355h-1.176a.831.831,0,0,0-.333.058.628.628,0,0,0-.25.21l-1.313,1.9a.49.49,0,0,1-.431.188h-.216v-2.36h-1.353V36h1.353V33.521ZM-215,32.742v3.07h.315c1.466,0,2.5-1.411,2.913-3.973l.058-.361H-215V32.1h2.543c-.241,1.259-.771,2.809-1.914,3.055V32.742Zm.982-4.3h0l1,1.063a.514.514,0,0,0,.336.2.3.3,0,0,0,.189-.076l.028-.027,1.1-1.161A1.688,1.688,0,0,1-211,29.478V29.6h.626v-.122a2.292,2.292,0,0,0-.543-1.491l.517-.553-.448-.433-.54.567a2.294,2.294,0,0,0-1.3-.4,2.289,2.289,0,0,0-1.3.4l-.543-.567-.455.433.522.553A2.3,2.3,0,0,0-215,29.478V29.6h.629v-.122a1.679,1.679,0,0,1,.352-1.031ZM-70,9v2h4V9ZM-82,9v2h10V9ZM-318,9v2h2V9Zm-4,0v2h2V9Zm-4,0v2h2V9Zm-4,0v2h2V9Zm117.772,29.086h-.665l-.431-1.286a3.255,3.255,0,0,0,.554-.309l.541,1.593Zm-.462-9.157h0l-.854-.9a1.688,1.688,0,0,1,.855-.235,1.7,1.7,0,0,1,.856.235l-.855.9Z" transform="translate(3446 514)" fill="#fff"/>
    <line id="Line_5" data-name="Line 5" x2="342.989" transform="translate(3076.497 534)" fill="none" stroke="#c7c7c7" stroke-linecap="square" stroke-width="1"/>
    <line id="Line_6" data-name="Line 6" x2="342.989" transform="translate(3076.497 559.705)" fill="none" stroke="#c7c7c7" stroke-linecap="square" stroke-width="1"/>
    <line id="Line_10" data-name="Line 10" x2="342.989" transform="translate(3076.497 579.705)" fill="none" stroke="#c7c7c7" stroke-linecap="square" stroke-width="1"/>
  </g>
</svg>
